<svg xmlns="http://www.w3.org/2000/svg" viewBox="0 0 800 600" width="800" height="600"><g stroke-linecap="round" stroke-linejoin="round"><ellipse cx="405" cy="477" rx="287" ry="17" fill="#173b2920"/><g fill="none" stroke="#23332c" stroke-width="19"><circle cx="210" cy="360" r="107"/><circle cx="602" cy="360" r="107"/></g><g fill="none" stroke="#b1b5a0" stroke-width="3"><circle cx="210" cy="360" r="91"/><circle cx="602" cy="360" r="91"/><path d="M210 269v182m-91-91h182m-155-65 129 130m0-130L145 425M602 269v182m-91-91h182m-155-65 129 130m0-130L537 425"/></g><g fill="none" stroke="#a4ad78" stroke-width="20"><path d="m210 360 120-154 70 154H210l305-154-115 154m115-154 87 154"/></g><path d="m334 224 33 78" stroke="#233d2e" stroke-width="28"/><path d="m326 202-17-45m-31 0h80m156 51-17-60 41-10m-43 13-21-1" stroke="#29382e" stroke-width="12"/><path d="M167 232h120m-105 0 27 97m43-97-27 97" fill="none" stroke="#3f4c3b" stroke-width="7"/><path d="m503 218 23 72" stroke="#344a38" stroke-width="12"/><circle cx="400" cy="360" r="25" fill="#253e2d"/><path d="m400 360 33 33h29m-62-33-32-31h-29" fill="none" stroke="#26342b" stroke-width="7"/><path d="M493 254a114 114 0 0 1 219 83M102 339a114 114 0 0 1 216-28" stroke="#7d895f" stroke-width="9" fill="none"/><path d="m541 192-9 19" stroke="#d5c898" stroke-width="7"/><circle cx="602" cy="360" r="12" fill="#3e4e3a"/><circle cx="210" cy="360" r="13" fill="#3e4e3a"/></g></svg>