<svg xmlns="http://www.w3.org/2000/svg" viewBox="0 0 800 600" width="800" height="600"><g fill="none" stroke="#95b4b1" stroke-width="4" opacity=".7"><path d="M76 437q135 38 277 3t355 0M137 473q147 25 281 0t226 3M193 500h396"/></g><path d="m113 316 474-4 117 30-127 102-301-8-103-56Z" fill="#32564c"/><path d="m113 316 91-75h291l92 71-101 25-313 5Z" fill="#eeecd9"/><path d="m174 315 44-45h221l54 50Z" fill="#afbdaa"/><path d="m216 257 53-91h154l56 91Z" fill="#688b85" stroke="#e2e7d8" stroke-width="10"/><path d="m295 169-28 88m97-87 10 87" stroke="#e2e7d8" stroke-width="9"/><path d="M293 315v-32h114v37" fill="#ece3cb" stroke="#7f9480" stroke-width="7"/><path d="m479 277 54-5 44 32-43 10Z" fill="#c0ccb9"/><path d="m145 349 435 24 82-30" fill="none" stroke="#b5c1aa" stroke-width="7"/><path d="m612 322 38-35 48 7-17 35" fill="none" stroke="#c5d0bf" stroke-width="7"/><path d="m113 330-22 42h47m-21-27-5 43" stroke="#3a4f47" stroke-width="16"/><text x="344" y="401" font-family="Arial,sans-serif" font-size="16" letter-spacing="6" fill="#eff1df">SHADOWALKER</text></svg>