<svg xmlns="http://www.w3.org/2000/svg" viewBox="0 0 800 800" width="800" height="800"><defs><linearGradient id="sky" x2="0" y2="1"><stop stop-color="#d5ddc6"/><stop offset="1" stop-color="#f3e9c9"/></linearGradient><linearGradient id="ground" x2="1" y2="1"><stop stop-color="#ced0ac"/><stop offset="1" stop-color="#8d9f73"/></linearGradient><filter id="grain"><feTurbulence baseFrequency=".7" numOctaves="3" stitchTiles="stitch"/><feColorMatrix type="saturate" values="0"/><feComponentTransfer><feFuncA type="linear" slope=".05"/></feComponentTransfer><feBlend in="SourceGraphic" mode="multiply"/></filter></defs><g filter="url(#grain)"><path fill="url(#sky)" d="M0 0h800v800H0z"/><circle cx="608" cy="146" r="57" fill="#f7eed2"/><path d="M0 307 175 153 352 329 580 183 800 331v261H0" fill="#a0b294"/><path d="M0 340 98 294 240 374 438 257 687 369 800 298v307H0" fill="#718e79"/><path d="M0 447q148-89 344-47t456-20v165H0" fill="#a8bfb1"/><path d="M0 477q216 19 457-38t343-9v163H0" fill="#bfd0be"/><path d="M0 533q218-83 385-1t415-10v278H0" fill="url(#ground)"/><path d="M800 555Q589 535 470 589T152 800H426q46-110 129-136t245-34Z" fill="#e8dec0"/><g fill="#405e47"><path d="m30 252-46 167h94Z"/><path d="m63 301-40 170h87Z"/><path d="m750 306-47 185h97Z"/></g><path d="M0 650q70-19 159 7t-32 143H0Z" fill="#6f8759"/></g><g transform="translate(39 248) scale(.91)"><g stroke-linecap="round" stroke-linejoin="round"><ellipse cx="405" cy="477" rx="287" ry="17" fill="#173b2920"/><g fill="none" stroke="#23332c" stroke-width="19"><circle cx="210" cy="360" r="107"/><circle cx="602" cy="360" r="107"/></g><g fill="none" stroke="#b1b5a0" stroke-width="3"><circle cx="210" cy="360" r="91"/><circle cx="602" cy="360" r="91"/><path d="M210 269v182m-91-91h182m-155-65 129 130m0-130L145 425M602 269v182m-91-91h182m-155-65 129 130m0-130L537 425"/></g><g fill="none" stroke="#a4ad78" stroke-width="20"><path d="m210 360 120-154 70 154H210l305-154-115 154m115-154 87 154"/></g><path d="m334 224 33 78" stroke="#233d2e" stroke-width="28"/><path d="m326 202-17-45m-31 0h80m156 51-17-60 41-10m-43 13-21-1" stroke="#29382e" stroke-width="12"/><path d="M167 232h120m-105 0 27 97m43-97-27 97" fill="none" stroke="#3f4c3b" stroke-width="7"/><path d="m503 218 23 72" stroke="#344a38" stroke-width="12"/><circle cx="400" cy="360" r="25" fill="#253e2d"/><path d="m400 360 33 33h29m-62-33-32-31h-29" fill="none" stroke="#26342b" stroke-width="7"/><path d="M493 254a114 114 0 0 1 219 83M102 339a114 114 0 0 1 216-28" stroke="#7d895f" stroke-width="9" fill="none"/><path d="m541 192-9 19" stroke="#d5c898" stroke-width="7"/><circle cx="602" cy="360" r="12" fill="#3e4e3a"/><circle cx="210" cy="360" r="13" fill="#3e4e3a"/></g></g><g stroke="#657b51" stroke-width="4"><path d="m55 750-8-66m8 50-22-23m22 12 21-29m628 28 4-46m-4 36-16-18"/></g></svg>